<svg xmlns="http://www.w3.org/2000/svg" viewBox="0 0 665.2173 385.0195"><path fill="#FFF" d="M624.624 153.48a91.1 91.1 0 0 0 2.265-17.278c.941-26.924-9.633-52.632-29.78-72.388C577.917 45 552.075 33.713 524.343 32.035a118.018 118.018 0 0 0-7.117-.217c-25.596 0-50.212 8.7-68.796 24.099-14.661-19.086-34.952-30.59-56.776-31.911a71.97 71.97 0 0 0-4.226-.126c-15.734 0-31.165 5.49-44.266 15.615C328.463 16.134 305.87 1.62 281.188.13c-1.4-.085-2.82-.129-4.219-.129-26.25 0-50.72 15.132-65.858 40.122-10.204-8.148-21.936-12.796-34.384-13.549a57.77 57.77 0 0 0-3.486-.105c-33.244 0-60.873 28.62-66.312 66.823a79.44 79.44 0 0 0-13.51-1.157c-50.217 0-91.215 47.36-93.333 107.82-1.069 30.48 7.825 59.68 25.047 82.213 17.002 22.254 40.137 35.345 65.144 36.857a78.582 78.582 0 0 0 24.893-2.465c3.518 18.601 11.659 32.643 23.113 39.4 4.803 2.835 9.982 4.27 15.403 4.27 10.998 0 22.384-5.845 32.747-16.656 12.254 17.175 29.907 27.78 48.83 28.926 1.152.07 2.326.108 3.475.108 18.62 0 36.096-9.1 48.749-24.896 12.007 21.725 32.071 35.876 54.019 37.201 1.158.071 2.327.108 3.48.108 21.982 0 42.12-12.558 54.76-33.488 15.182 16.167 36.864 26.323 60.047 27.724 1.869.112 3.76.17 5.622.17 36.931 0 68.242-22.33 78.12-54.364a117.818 117.818 0 0 0 19.348 1.603h.01c26.296 0 51.164-8.926 70.018-25.123 19.894-17.094 31.345-40.685 32.249-66.436 1.11-31.703-13.916-61.68-40.536-81.626z"/></svg>