<svg xmlns="http://www.w3.org/2000/svg" viewBox="0 0 150.1685 220.9375"><path fill-rule="evenodd" clip-rule="evenodd" fill="#E6B683" d="M55.05 81.061h32.059v47.318H55.05z"/><path fill-rule="evenodd" clip-rule="evenodd" fill="#A16B45" d="M101.533 11.411c11.338 8.574 18.61 21.83 18.61 36.705 0 25.854-21.967 46.81-49.063 46.81-27.098 0-49.064-20.956-49.064-46.81 0-16.663 8.497-36.32 22.868-38.33 11.492-15.567 40.352-10.7 56.649 1.625z"/><path fill-rule="evenodd" clip-rule="evenodd" fill="#FAD3A8" d="M72.722 20.882c21.646 0 36.729 15.026 34.016 43.156-.773 8.008 7.015 3.78 7.015 6.673 0 1.893 1.793.47 1.55 2.3-2.826 21.248-21.549 37.664-44.223 37.664-22.67 0-41.388-16.406-44.222-37.647-.245-1.835 4.015-2.61 4.015-4.51 5.257 7.647 4.36.945 3.905-3.512-4.136-40.46 15.257-44.124 37.944-44.124z"/><path fill-rule="evenodd" clip-rule="evenodd" fill="#E28D66" d="M90.801 81.683c-10.645 11.011-28.797 11.011-39.443 0h39.443z"/><path fill-rule="evenodd" clip-rule="evenodd" fill="#EDA17D" d="M82.888 87.331c-7.428 3.48-16.189 3.48-23.617 0 7.088-6.017 16.53-6.017 23.617 0z"/><g fill-rule="evenodd" clip-rule="evenodd"><ellipse fill="#333" cx="55.974" cy="56.269" rx="3.838" ry="6.457"/><circle fill="#FFF" cx="56.534" cy="53.044" r="2.259"/><g><ellipse fill="#333" cx="86.185" cy="56.269" rx="3.838" ry="6.457"/><circle fill="#FFF" cx="86.746" cy="53.044" r="2.259"/></g></g><g fill-rule="evenodd" clip-rule="evenodd" fill="#FAD3A8"><path d="M20.677 52.7c2.465-1.056 6.363 3.118 8.707 9.324 2.343 6.207 2.244 12.094-.222 13.15-2.465 1.057-6.363-3.116-8.706-9.323-2.343-6.206-2.244-12.094.221-13.15z"/><ellipse transform="rotate(-71.73 117.181 63.936)" cx="117.178" cy="63.938" rx="11.834" ry="6.102"/></g><path fill-rule="evenodd" clip-rule="evenodd" fill="#FFF" d="M79.748 81.683c-.483 5.231-17.182 4.699-17.336 0h17.336z"/><path fill="#C79C6D" d="M76.21 73.32c1.288-.887 3.21-.032 1.923.857-3.9 2.692-10.213 2.692-14.112 0-1.288-.889.448-1.586 1.923-.858 2.927 1.446 7.562 1.389 10.266 0z"/><g fill="#A16B45"><path d="M46.597 42.763c-1.603 1.896-4.102 1.042-2.5-.852 4.01-4.735 12.343-7.024 18.055-4.976 2.323.832.241 3.859-2.075 3.029-3.935-1.41-10.703-.475-13.48 2.799zM95.562 42.763c1.603 1.897 4.103 1.043 2.5-.852-4.01-4.736-12.343-7.024-18.056-4.976-2.322.832-.24 3.859 2.075 3.029 3.936-1.41 10.705-.475 13.481 2.799z"/></g><path fill="#A16B45" d="M71.482 95.97c2.97 0 4.156 7.632 7.395 9.524 8.222 4.802 12.676-15.852 12.827-20.565.098-3.048 1.574-2.963 1.742-.284.56 8.934 6.071 29.742-21.964 29.742S48.96 93.579 49.52 84.645c.168-2.68 1.644-2.764 1.741.284.152 4.714 4.606 25.367 12.827 20.565 3.24-1.891 4.426-9.523 7.395-9.523z"/><path fill-rule="evenodd" clip-rule="evenodd" fill="#2B3E61" d="M70.932 133.467c18.793 0 34.028 32.846 34.028 73.366 0 38.44-13.713 69.972-31.168 73.105 2.47-13.387 1.9-34.6 1.9-58.64v-.07c-1.549.533-3.139.815-4.76.815s-3.212-.282-4.762-.816v.072c-1.306 24.405.147 45.452 1.9 58.638-17.453-3.132-31.167-34.664-31.167-73.104 0-40.52 15.235-73.366 34.029-73.366z"/><path fill="#FAD3A8" d="M93.832 125.105c3.696.576 8.048.9 12.473.572 5.773-.428 11.718-1.96 16.405-5.527 9.647-7.339 12.13-28.135 11.294-39.348l11.473.79c1.246 16.783.594 39.676-13.665 50.523-7.346 5.59-16.106 7.946-24.426 8.564-5.753.428-11.266.026-15.888-.694l2.334-14.88z"/><path fill-rule="evenodd" clip-rule="evenodd" fill="#FAD3A8" d="M19.867 190.275c3.09 2.332 9.441 12.68 6.61 14.27-2.25 1.267-2.854-6.027-5.375-4.355-2.796 1.856.913 15.86-2.357 15.635-3.705-.254-.594-11.513-3.486-11.238-2.892.275 1.095 14.792-2.787 14.402-3.881-.389.306-13.441-2.598-13.515-2.905-.074.08 12.082-3.457 11.829-3.945-.283.774-14.37-1.077-14.293-3.097.129-.84 9.983-3.937 9.936-1.831-.028-1.682-5.267-.626-10.919.934-4.998 2.704-10.05 5.108-12.293 5.057-4.717 8.45-3.632 13.982.541z"/><path fill="#FAD3A8" d="M51.666 132.425c-8.045 2.158-14.399 7.594-19.34 16.504-5.509 9.93-11.318 23.992-13.745 42.39l-11.41-1.695c2.676-20.285 5.553-36.361 12.01-48.004 7.024-12.662 16.417-20.486 28.596-23.755l3.89 14.56z"/><path fill-rule="evenodd" clip-rule="evenodd" fill="#FFF" d="M38.716 262.374c9.984 0 23.474 5.654 29.355 17.564H22.39c-.346-12.117 6.343-17.564 16.326-17.564zM103.147 262.374c-9.983 0-23.474 5.654-29.355 17.564h45.682c.345-12.117-6.344-17.564-16.327-17.564zM86.961 111.637c13.42 9.188 22.751 29.556 22.751 53.21 0 10.551-1.858 20.448-5.106 28.992-6.685 6.36-19.26 10.645-33.674 10.645-14.413 0-26.99-4.285-33.675-10.645-3.248-8.544-5.106-18.44-5.106-28.992 0-23.654 9.332-44.022 22.752-53.21.001 6.839 7.177 12.381 16.029 12.381s16.028-5.542 16.03-12.381z"/><path fill-rule="evenodd" clip-rule="evenodd" fill="#FAD3A8" d="M135.462 67.728c2.85-.554-3.985-14.29-.103-14.67 3.882-.385 2.348 13.24 5.207 12.74 2.863-.501-2.46-11.831 1.06-12.279 3.922-.5 2.075 14.24 3.873 13.8 3.01-.737-1.142-9.952 1.903-10.517 1.799-.332 2.683 4.833 2.761 10.582.07 5.085-.67 10.386-2.585 13.058-4.029 5.622-7.569 5.226-13.815 2.223-3.487-1.677-11.757-10.57-9.29-12.689 1.958-1.684 3.986 5.348 6.129 3.213"/><path fill="#FFF" d="M59.244 133.58c-10.699 4.553-21.53 13.519-28.857 24.541L14.57 144.144c.32-.608.644-1.207.972-1.8 9.51-17.144 21.945-24.051 38.434-28.476l5.267 19.712zM93.394 117.22c6.616 2.965 13.274 4.518 22.145 4.886l2.76 22.21a92.16 92.16 0 0 1-1.9.757c-17.448 2.574-14.437 2.343-30.365-2.52l7.36-25.332z"/><path fill-rule="evenodd" clip-rule="evenodd" fill="#FAD3A8" d="M130.602 73.19c2.85-.555-5.057-16.841-1.176-17.223 3.882-.384 3.385 12.185 6.244 11.685"/><path fill="#DFDDDC" d="M57.07 140.66s-4.346-.764-5.418 3.862c-1.127 4.854 2.596 4.484 2.596 4.484l2.822-8.346z"/><path d="M52.794 142.788c-.819-.026-1.488 2.48-1.261 3.379.085.336.957.604 1.341-.351.283-.702.928-2.995-.08-3.028"/><path fill="none" stroke="#000" stroke-width="1.348" stroke-miterlimit="10" d="M52.794 142.788c-.819-.026-1.488 2.48-1.261 3.379.085.336.957.604 1.341-.351.283-.702.928-2.995-.08-3.028z"/><path fill="#FFF" d="M52.182 143.541c-.179-.062-.385.43-.446.608-.176.506.206.486.418.193.117-.163.217-.736.028-.801"/><path fill="#B7937F" d="M54.937 181.341c.495.698 3.99.61 4.426-.126.402-.677-2.055-1.429-2.946-1.543-1.357-.173-1.837 1.166-1.48 1.67M84.189 177.329c.494.699 2.824.351 3.262-.386.4-.677-.89-1.17-1.783-1.283-1.356-.173-1.837 1.166-1.479 1.669"/><path fill="#8AC4E6" d="M68.698 135.8s-17.482-.856-15.451 20.891c.609 6.53-4.205 17.55 2.803 23.024 0 0 9.802 5.92 22.932 3.983 1.922-.283 4.369-.96 6.068-5.486 2.147-5.707.639-11.663-1.262-15.888-2.145-4.77-2.039-10.156-1.886-11.065 2.603-15.385-13.204-15.46-13.204-15.46"/><path fill="#8AC4E6" d="M77.6 138.242c1.844-.476 3.126-1.012 4.163-.48 2.924 1.504-.472 4.354-1.19 4.896-1.062.802-4.31-4.072-2.973-4.416"/><path fill="#3C89BE" d="M79.87 138.4c-1.804.406-1.883 1.315-1.42 1.57.272.15.075-.773 1.302-.368.496.164-.238 1.373 1.16.021.752-.727-.65-1.31-1.041-1.222"/><path fill="#DFDDDC" d="M63.733 137.318c-2.2.165-7.307 2.739-4.801 9.044.878 2.209 10.042.986 10.154-5.19.047-2.568-3.416-3.998-5.353-3.854"/><path d="M61.047 139.485c-2.055.187-2.555 3.092-1.79 3.773.433.386 1.928.828 2.739-1.822.256-.84-.192-2.02-.949-1.951"/><path fill="none" stroke="#000" stroke-width="1.348" stroke-miterlimit="10" d="M61.047 139.485c-2.055.187-2.555 3.092-1.79 3.773.433.386 1.928.828 2.739-1.822.256-.84-.192-2.02-.949-1.951z"/><path fill="#FFF" d="M60.259 140.024c-.295-.083-.845.674-.686.99.059.116.306.275.507.121.222-.17.764-.946.179-1.111"/><path fill="#B7937F" d="M57.66 147.004c-3.819-.746-4.281 3.347-2.948 4.051.974.514 3.73-.33 4.182-1.287.455-.96.717-2.383-1.234-2.764"/><path d="M55.102 146.648c-1.2.41-1.135 2.434-.488 2.497.734.072 2.02-1.414 2.324-2.002.233-.448-1.358-.658-1.836-.495"/><path fill="#DFDDDC" d="M55.538 150.828c-.308.138-.277 1.808.317 2.06 1.879.797 2.007-1.958 1.645-2.392-.286-.341-1.75.236-1.962.332"/><path fill="#B7937F" d="M76.61 160.362c-1.07.048-1.887 2.24-1.62 3.29.144.57 1.238.479 1.083.92-.257.73 1.667 1.241 2.039.454 1.848-3.916-.515-4.707-1.501-4.664M74.67 182.267c-3.816-.413-4.967 1.408-4.261 2.091.743.72 3.654.513 5.251.378.633-.054-.028-2.364-.99-2.469"/></svg>