<svg xmlns="http://www.w3.org/2000/svg" viewBox="0 0 309.333 33.1748"><path fill="#FFFFFF" d="M290.34 14.022C284.607 7.449 278.11 0 265.273 0c-12.84 0-19.336 7.45-25.07 14.022-5.31 6.089-9.897 11.347-19.187 11.347-9.29 0-13.877-5.258-19.188-11.347C196.095 7.449 189.597 0 176.757 0s-19.337 7.45-25.07 14.022c-5.31 6.089-9.897 11.347-19.185 11.347s-13.874-5.258-19.185-11.347C107.585 7.449 101.087 0 88.25 0S68.913 7.45 63.181 14.022c-5.31 6.089-9.896 11.347-19.184 11.347-9.289 0-13.876-5.258-19.186-11.347C19.117 7.495 12.662.112 0 .009v7.806c9.111.1 13.668 5.307 18.928 11.337 5.732 6.573 12.23 14.023 25.069 14.023 12.837 0 19.334-7.45 25.066-14.02 5.311-6.09 9.898-11.35 19.186-11.35 9.29 0 13.875 5.26 19.186 11.35 5.73 6.57 12.229 14.02 25.067 14.02 12.839 0 19.335-7.45 25.068-14.023 5.31-6.089 9.899-11.346 19.187-11.346 9.29 0 13.878 5.26 19.187 11.348 5.734 6.571 12.232 14.02 25.07 14.02s19.337-7.449 25.072-14.022c5.308-6.089 9.896-11.346 19.185-11.346 9.289 0 13.875 5.257 19.186 11.346 5.704 6.539 12.17 13.938 24.876 14.015v-7.805c-9.155-.075-13.72-5.295-18.992-11.34z"/></svg>